<!DOCTYPE svg PUBLIC "-//W3C//DTD SVG 1.1//EN" "http://www.w3.org/Graphics/SVG/1.1/DTD/svg11.dtd">
<!-- Uploaded to: SVG Repo, www.svgrepo.com, Transformed by: SVG Repo Mixer Tools -->
<svg width="64px" height="64px" viewBox="0 0 1024.00 1024.00" fill="#000000" class="icon" version="1.1" xmlns="http://www.w3.org/2000/svg">
<g id="SVGRepo_bgCarrier" stroke-width="0" transform="translate(15.360000000000014,15.360000000000014), scale(0.97)">
<path transform="translate(0, 0), scale(32)" d="M16,30.169782566527523C18.42130760520393,30.035561954917338,19.551807466365304,27.00195558062257,21.65016637928784,25.78637524014402C23.744235408501044,24.573280031388123,26.55821711143882,24.802749955473587,28.25070099061616,23.072945514693856C30.070425525582248,21.21309466452789,31.301051972326235,18.600907420024196,31.225400399416685,16C31.150186392208767,13.414136125487877,29.087030548104508,11.430551584306391,27.84604054039245,9.160685305173201C26.573717753172055,6.833508959725602,26.33166024020676,3.3076281185740166,23.8201151949664,2.4551631612768077C21.16506934726591,1.5539913708399258,18.802653945276855,5.05923546956463,16,5.139919497072697C13.325650255326092,5.216909847140387,10.932374152722625,1.9367329945003275,8.435591164355483,2.8980595674407503C6.041620992091925,3.819800524562854,5.963297417084107,7.243526336478476,4.715349786480669,9.48480416151384C3.4893748725320286,11.686619623396695,1.5257699991268974,13.50951795323113,1.1404065440098456,15.999999999999996C0.730160498845654,18.651290351154355,0.7674903128913553,21.74615278686495,2.5013049493150064,23.793475221221634C4.2386303177842235,25.84494319704908,7.545481886275726,25.285305157422044,9.976216788714126,26.43349857572753C12.14969548702826,27.460173238492285,13.59992294302392,30.302826302815532,16,30.169782566527523" fill="#7ed0ec" strokewidth="0"/>
</g>
<g id="SVGRepo_tracerCarrier" stroke-linecap="round" stroke-linejoin="round"/>
<g id="SVGRepo_iconCarrier">
<path d="M53.6 1023.2c-6.4 0-12.8-2.4-17.6-8-4.8-4.8-7.2-11.2-6.4-18.4L80 222.4c0.8-12.8 11.2-22.4 24-22.4h211.2v-3.2c0-52.8 20.8-101.6 57.6-139.2C410.4 21.6 459.2 0.8 512 0.8c108 0 196.8 88 196.8 196.8 0 0.8-0.8 1.6-0.8 2.4v0.8H920c12.8 0 23.2 9.6 24 22.4l49.6 768.8c0.8 2.4 0.8 4 0.8 6.4-0.8 13.6-11.2 24.8-24.8 24.8H53.6z m25.6-48H944l-46.4-726.4H708v57.6h0.8c12.8 8.8 20 21.6 20 36 0 24.8-20 44.8-44.8 44.8s-44.8-20-44.8-44.8c0-14.4 7.2-27.2 20-36h0.8v-57.6H363.2v57.6h0.8c12.8 8.8 20 21.6 20 36 0 24.8-20 44.8-44.8 44.8-24.8 0-44.8-20-44.8-44.8 0-14.4 7.2-27.2 20-36h0.8v-57.6H125.6l-46.4 726.4zM512 49.6c-81.6 0-148.8 66.4-148.8 148.8v3.2h298.4l-0.8-1.6v-1.6c0-82.4-67.2-148.8-148.8-148.8z" fill=""/>
</g>
</svg>